<svg xmlns="http://www.w3.org/2000/svg" width="16.47" height="12.34" viewBox="0 0 16.47 12.34">
  <defs>
    <style>
      .cls-1 {
        fill: #fff;
        fill-rule: evenodd;
      }
    </style>
  </defs>
  <path class="cls-1" d="M1019.2,3537.9c2.26,1.91,6.22,5.27,7.39,6.32a0.735,0.735,0,0,0,.5.22,0.688,0.688,0,0,0,.49-0.22c1.17-1.05,5.13-4.41,7.39-6.32a0.356,0.356,0,0,0,.05-0.48,1.389,1.389,0,0,0-1.08-.52h-13.71a1.389,1.389,0,0,0-1.08.52A0.356,0.356,0,0,0,1019.2,3537.9Zm15.91,1.03a0.359,0.359,0,0,0-.36.05c-1.48,1.26-3.43,2.91-4.9,4.18a0.322,0.322,0,0,0-.12.26,0.332,0.332,0,0,0,.13.26c1.37,1.1,3.42,2.6,4.91,3.67a0.312,0.312,0,0,0,.35.03,0.343,0.343,0,0,0,.19-0.31v-7.83A0.353,0.353,0,0,0,1035.11,3538.93Zm-15.71,8.42c1.49-1.07,3.55-2.57,4.91-3.67a0.332,0.332,0,0,0,.13-0.26,0.322,0.322,0,0,0-.12-0.26c-1.47-1.27-3.42-2.92-4.9-4.18a0.359,0.359,0,0,0-.36-0.05,0.353,0.353,0,0,0-.2.31v7.83a0.343,0.343,0,0,0,.19.31A0.312,0.312,0,0,0,1019.4,3547.35Zm15.49,0.93c-1.43-1.02-4.08-2.94-5.66-4.22a0.347,0.347,0,0,0-.44.01c-0.31.27-.56,0.5-0.75,0.66a1.383,1.383,0,0,1-1.91,0c-0.19-.16-0.44-0.39-0.75-0.66a0.347,0.347,0,0,0-.44-0.01c-1.58,1.28-4.22,3.19-5.66,4.22a0.355,0.355,0,0,0-.14.25,0.344,0.344,0,0,0,.09.27,1.4,1.4,0,0,0,1,.44h13.71a1.4,1.4,0,0,0,1-.44,0.344,0.344,0,0,0,.09-0.27A0.355,0.355,0,0,0,1034.89,3548.28Z" transform="translate(-1018.84 -3536.91)"/>
</svg>
