<svg xmlns="http://www.w3.org/2000/svg" width="16.31" height="16.31" viewBox="0 0 16.31 16.31">
  <defs>
    <style>
      .cls-1 {
        fill: #fff;
        fill-rule: evenodd;
      }
    </style>
  </defs>
  <path class="cls-1" d="M1018,3508.68v8.98a0.48,0.48,0,0,0,.48.48h0.95v-9.94h-0.95A0.474,0.474,0,0,0,1018,3508.68Zm15.83-.48h-8.02v9.94h8.02a0.48,0.48,0,0,0,.48-0.48v-8.98A0.474,0.474,0,0,0,1033.83,3508.2Zm-6.4,7.36a0.48,0.48,0,1,1,.48-0.48A0.487,0.487,0,0,1,1027.43,3515.56Zm0-1.91a0.487,0.487,0,0,1-.48-0.48,0.48,0.48,0,0,1,.96,0A0.487,0.487,0,0,1,1027.43,3513.65Zm0-1.92a0.475,0.475,0,1,1,.48-0.47A0.478,0.478,0,0,1,1027.43,3511.73Zm1.91,3.83a0.48,0.48,0,0,1,0-.96A0.48,0.48,0,1,1,1029.34,3515.56Zm0-1.91a0.487,0.487,0,0,1-.48-0.48,0.48,0.48,0,0,1,.48-0.48,0.474,0.474,0,0,1,.48.48A0.48,0.48,0,0,1,1029.34,3513.65Zm0-1.92a0.475,0.475,0,1,1,.48-0.47A0.472,0.472,0,0,1,1029.34,3511.73Zm1.91,3.83a0.48,0.48,0,1,1,.48-0.48A0.478,0.478,0,0,1,1031.25,3515.56Zm0-1.91a0.478,0.478,0,0,1-.47-0.48,0.475,0.475,0,1,1,.95,0A0.48,0.48,0,0,1,1031.25,3513.65Zm0-1.92a0.475,0.475,0,1,1,.48-0.47A0.469,0.469,0,0,1,1031.25,3511.73Zm0.42-8.47a0.487,0.487,0,0,0-.48-0.48h-10.07a0.487,0.487,0,0,0-.48.48v3.34a2.388,2.388,0,0,1,1.18-.31h1.6a2.387,2.387,0,0,1,1.91.95h6.34v-3.98Zm-8.25,3.98h-1.6a1.438,1.438,0,0,0-1.43,1.44v8.98a1.43,1.43,0,0,0,1.43,1.43h1.6a1.43,1.43,0,0,0,1.43-1.43v-8.98A1.438,1.438,0,0,0,1023.42,3507.24Z" transform="translate(-1018 -3502.78)"/>
</svg>
