<svg xmlns="http://www.w3.org/2000/svg" width="15.82" height="15.82" viewBox="0 0 15.82 15.82">
  <defs>
    <style>
      .cls-1 {
        fill: #fff;
        fill-rule: evenodd;
      }
    </style>
  </defs>
  <path class="cls-1" d="M1035.36,3482.93l-1.75-1.18-1.57-1.04a0.686,0.686,0,0,0-.92.15l-0.97,1.25a0.7,0.7,0,0,1-.88.18,15.435,15.435,0,0,1-5.56-5.56,0.7,0.7,0,0,1,.18-0.88l1.24-.97a0.689,0.689,0,0,0,.16-0.93l-1.01-1.51-1.21-1.8a0.686,0.686,0,0,0-.93-0.21l-1.38.83a1.68,1.68,0,0,0-.77,1c-0.38,1.38-.46,4.43,4.43,9.32s7.94,4.81,9.32,4.43a1.68,1.68,0,0,0,1-.77l0.83-1.38A0.686,0.686,0,0,0,1035.36,3482.93Z" transform="translate(-1019.84 -3470.34)"/>
</svg>
